<?xml version="1.0" encoding="UTF-8" standalone="no"?>
<!-- Created with Inkscape (http://www.inkscape.org/) -->

<svg
   width="300"
   height="200"
   viewBox="0 0 79.374998 52.916666"
   version="1.1"
   id="svg5"
   xml:space="preserve"
   inkscape:version="1.2.2 (b0a8486541, 2022-12-01)"
   sodipodi:docname="br.svg"
   xmlns:inkscape="http://www.inkscape.org/namespaces/inkscape"
   xmlns:sodipodi="http://sodipodi.sourceforge.net/DTD/sodipodi-0.dtd"
   xmlns:xlink="http://www.w3.org/1999/xlink"
   xmlns="http://www.w3.org/2000/svg"
   xmlns:svg="http://www.w3.org/2000/svg"><sodipodi:namedview
     id="namedview7"
     pagecolor="#505050"
     bordercolor="#eeeeee"
     borderopacity="1"
     inkscape:showpageshadow="0"
     inkscape:pageopacity="0"
     inkscape:pagecheckerboard="0"
     inkscape:deskcolor="#505050"
     inkscape:document-units="mm"
     showgrid="false"
     inkscape:zoom="1.4142136"
     inkscape:cx="127.98633"
     inkscape:cy="145.31044"
     inkscape:window-width="1920"
     inkscape:window-height="1016"
     inkscape:window-x="0"
     inkscape:window-y="0"
     inkscape:window-maximized="1"
     inkscape:current-layer="g216" /><defs
     id="defs2"><g
       id="G"><clipPath
         id="gcut"><path
           d="m-31.5 0v-70h63v70zm31.5-47v12h31.5v-12z"
           id="path9" /></clipPath><use
         width="100%"
         height="100%"
         clip-path="url(#gcut)"
         xlink:href="#O"
         id="use12" /><path
         d="M5-35H31.5V-25H5z"
         id="path14" /><path
         d="m21.5-35h10v35h-10z"
         id="path16" /></g><g
       id="R"><use
         width="100%"
         height="100%"
         xlink:href="#P"
         id="use19" /><path
         d="m28 0c0-10 0-32-15-32h-19c22 0 22 22 22 32"
         id="path21" /></g><g
       id="star"
       fill="#fff"><g
         id="c"><path
           id="t"
           transform="rotate(18,0,-1)"
           d="m0-1v1h0.5" /><use
           transform="scale(-1,1)"
           width="100%"
           height="100%"
           xlink:href="#t"
           id="use25" /></g><use
         transform="rotate(72)"
         width="100%"
         height="100%"
         xlink:href="#c"
         id="use28" /><use
         transform="rotate(-72)"
         width="100%"
         height="100%"
         xlink:href="#c"
         id="use30" /><use
         transform="rotate(144)"
         width="100%"
         height="100%"
         xlink:href="#c"
         id="use32" /><use
         transform="rotate(216)"
         width="100%"
         height="100%"
         xlink:href="#c"
         id="use34" /></g><g
       id="star1"><use
         transform="scale(31.5)"
         width="100%"
         height="100%"
         xlink:href="#star"
         id="use37" /></g><g
       id="star2"><use
         transform="scale(26.25)"
         width="100%"
         height="100%"
         xlink:href="#star"
         id="use40" /></g><g
       id="star3"><use
         transform="scale(21)"
         width="100%"
         height="100%"
         xlink:href="#star"
         id="use43" /></g><g
       id="star4"><use
         transform="scale(15)"
         width="100%"
         height="100%"
         xlink:href="#star"
         id="use46" /></g><g
       id="star5"><use
         transform="scale(10.5)"
         width="100%"
         height="100%"
         xlink:href="#star"
         id="use49" /></g><path
       id="D"
       d="m-31.5 0h33a30 30 0 0 0 30-30v-10a30 30 0 0 0-30-30h-33zm13-13h19a19 19 0 0 0 19-19v-6a19 19 0 0 0-19-19h-19z"
       fill-rule="evenodd" /><path
       id="E"
       transform="translate(-31.5)"
       d="m0 0h63v-13h-51v-18h40v-12h-40v-14h48v-13h-60z" /><path
       id="e"
       d="m-26.25 0h52.5v-12h-40.5v-16h33v-12h-33v-11h39.25v-12h-51.25z" /><path
       id="M"
       d="m-31.5 0h12v-48l14 48h11l14-48v48h12v-70h-17.5l-14 48-14-48h-17.5z" /><path
       id="O"
       d="m0 0a31.5 35 0 0 0 0-70 31.5 35 0 0 0 0 70m0-13a18.5 22 0 0 0 0-44 18.5 22 0 0 0 0 44"
       fill-rule="evenodd" /><path
       id="P"
       d="m-31.5 0h13v-26h28a22 22 0 0 0 0-44h-40zm13-39h27a9 9 0 0 0 0-18h-27z"
       fill-rule="evenodd" /><path
       id="S"
       d="m-15.75-22c0 7 6.75 10.5 16.75 10.5s14.74-3.25 14.75-7.75c0-14.25-46.75-5.25-46.5-30.25 0.25-21.5 24.75-20.5 33.75-20.5s26 4 25.75 21.25h-15.25c0-7.5-7-10.25-15-10.25-7.75 0-13.25 1.25-13.25 8.5-0.25 11.75 46.25 4 46.25 28.75 0 18.25-18 21.75-31.5 21.75-11.5 0-31.55-4.5-31.5-22z" /></defs><g
     inkscape:label="Camada 1"
     inkscape:groupmode="layer"
     id="layer1"><g
       id="g216"
       transform="matrix(0.0178856,0,0,0.0178856,41.238832,27.279131)"
       style="display:inline"><path
         d="M -2303.2096,-1523.7766 H 2134.7435 V 1437.5968 H -2303.2096 Z"
         fill="#009b3a"
         id="path64"
         style="stroke-width:1.03167" /><g
         id="g1540"><path
           style="fill:#fedf00;fill-opacity:1;stroke:none;stroke-width:0.5"
           d="m 49.25,102.09789 c 0,-2.738995 5.820303,-8.832115 13.653464,-14.29344 C 66.809046,85.081451 100.50028,63.448015 122.75,49.376467 134.96802,41.649338 145.22972,37.268094 153.375,36.301089 l 2.375,-0.281959 33.33346,39.888923 -14.24227,39.687977 C 136.69579,115.44412 49.545962,102.30905 49.25,102.09789 Z"
           id="path773"
           transform="matrix(14.793092,0,0,14.793092,-2305.7002,-1525.2008)"
           sodipodi:nodetypes="cssscccc" /><path
           style="display:inline;fill:#fedf00;fill-opacity:1;stroke:none;stroke-width:7.39655"
           d="m 1573.5405,-14.866992 c 0,-40.51821 -86.1002,-130.654278 -201.9769,-211.444158 C 1313.788,-266.59273 815.39043,-586.61814 486.24828,-794.77984 305.50598,-909.08797 153.70371,-973.90012 33.209826,-988.20511 l -35.1336012,-4.17105 v 495.42709 L -76.026478,68.613373 C 463.06018,62.477128 1573.681,-14.870241 1573.5405,-14.866992 Z"
           id="path773-3"
           sodipodi:nodetypes="cssscccc" /><path
           style="display:inline;fill:#fedf00;fill-opacity:1;stroke:none;stroke-width:7.39655"
           d="m -1577.4805,-11.253409 c 0,40.5182 86.1003,130.654309 201.9769,211.444209 57.7757,40.2816 556.17323,360.30698 885.31538,568.46868 180.7423,114.30813 332.54457,179.12028 453.038448,193.42527 l 35.1335902,4.17105 c 111.1757218,-85.98846 0,-495.42709 0,-495.42709 L 319.50243,-224.21848 c -566.4452,-3.33391 -1895.93493,212.445873 -1896.98293,212.965071 z"
           id="path773-6"
           sodipodi:nodetypes="cssscccc" /><path
           style="display:inline;fill:#fedf00;fill-opacity:1;stroke:none;stroke-width:7.39655"
           d="m 1573.4272,-11.225412 c 0,40.518201 -86.1003,130.654312 -201.9769,211.444212 C 1313.6746,240.5004 815.27706,560.52578 486.13491,768.68748 305.39257,882.99561 153.59037,947.80776 33.096467,962.11275 L -2.0371322,966.2838 V 470.85671 -24.570412 H 785.69502 c 754.30818,0 787.73218,0.5666 787.73218,13.345 z"
           id="path773-6-7" /></g><circle
         r="542.02594"
         fill="#002776"
         id="circle68"
         cx="0"
         cy="-20.951241"
         style="display:inline;stroke-width:0.737451" /></g></g></svg>
